<?xml version="1.0" standalone="no"?>
<!DOCTYPE svg PUBLIC "-//W3C//DTD SVG 20010904//EN"
 "http://www.w3.org/TR/2001/REC-SVG-20010904/DTD/svg10.dtd">
<svg version="1.0" xmlns="http://www.w3.org/2000/svg"
 width="353.000000pt" height="353.000000pt" viewBox="0 0 353.000000 353.000000"
 preserveAspectRatio="xMidYMid meet">
<metadata>
Created by potrace 1.14, written by Peter Selinger 2001-2017
</metadata>
<g transform="translate(0.000000,353.000000) scale(0.100000,-0.100000)"
fill="#000000" stroke="none">
<path d="M2088 3300 l5 -25 -26 23 c-19 18 -31 22 -48 17 -43 -14 -77 -47
-105 -104 -25 -51 -28 -65 -27 -155 1 -103 8 -121 45 -112 10 2 21 0 24 -5 3
-5 19 -9 35 -9 17 0 32 -6 35 -15 4 -8 16 -15 29 -15 13 0 25 -7 29 -15 3 -8
12 -15 20 -15 9 0 18 -11 22 -25 3 -14 9 -25 14 -25 13 0 45 -34 60 -65 8 -16
17 -32 20 -35 3 -3 10 -14 16 -25 6 -11 21 -22 33 -25 13 -3 28 -15 34 -26 25
-46 78 -96 94 -90 14 6 13 9 -6 29 -11 13 -21 29 -21 35 0 7 -9 12 -20 12 -12
0 -20 7 -20 18 -1 16 -30 64 -30 48 0 -4 -7 0 -16 8 -8 9 -12 21 -8 27 4 8 3
9 -4 5 -7 -4 -12 -1 -13 6 -2 40 -37 128 -51 128 -4 0 -8 14 -8 31 0 17 -6 43
-14 57 -15 29 -46 157 -46 190 0 11 -7 27 -15 36 -16 16 -32 76 -21 76 4 0 13
-15 21 -32 12 -28 14 -29 15 -10 0 12 5 22 12 22 6 0 -4 14 -22 30 -24 21 -29
30 -17 30 9 0 17 -4 17 -10 0 -5 5 -10 10 -10 21 0 9 16 -23 31 -33 15 -33 15
-29 -11z"/>
<path d="M2308 3213 c6 -2 18 -2 25 0 6 3 1 5 -13 5 -14 0 -19 -2 -12 -5z"/>
<path d="M2367 3199 c7 -7 15 -10 18 -7 3 3 -2 9 -12 12 -14 6 -15 5 -6 -5z"/>
<path d="M2140 3182 c0 -4 10 -13 21 -21 19 -11 21 -11 15 4 -3 9 -6 19 -6 21
0 2 -7 4 -15 4 -8 0 -15 -3 -15 -8z"/>
<path d="M2580 3110 c0 -5 5 -10 10 -10 6 0 10 5 10 10 0 6 -4 10 -10 10 -5 0
-10 -4 -10 -10z"/>
<path d="M790 2926 c0 -6 -13 -20 -30 -29 -32 -19 -41 -62 -19 -84 7 -7 14
-31 16 -54 2 -23 12 -60 22 -83 20 -47 37 -97 45 -141 4 -16 8 -39 10 -50 7
-31 46 -146 63 -181 8 -16 25 -43 39 -59 13 -15 24 -34 24 -42 0 -7 4 -13 9
-13 19 0 67 -199 96 -395 2 -16 8 -48 12 -70 3 -22 5 -48 4 -59 -2 -10 3 -22
9 -26 9 -6 9 -13 0 -30 -11 -20 -10 -25 6 -37 16 -12 19 -12 22 1 2 9 10 12
18 9 9 -3 30 8 52 30 20 19 61 49 90 67 28 17 52 37 52 44 0 7 9 21 20 31 16
14 17 20 8 26 -7 5 -13 16 -13 26 0 9 -11 23 -25 30 -21 10 -22 13 -7 19 30
11 19 27 -15 20 l-32 -6 22 20 c25 23 28 36 10 43 -10 4 -10 6 0 6 6 1 12 8
12 16 0 20 20 19 48 -1 14 -9 46 -17 78 -18 36 -1 54 -5 54 -13 0 -7 5 -13 10
-13 6 0 10 -6 10 -14 0 -10 13 -16 38 -18 l37 -3 -27 -14 c-22 -11 -34 -12
-53 -3 -15 7 -25 8 -25 2 0 -6 5 -10 11 -10 6 0 8 -9 4 -20 -6 -20 -3 -19 47
7 29 15 55 31 58 34 3 3 30 14 60 24 76 24 118 50 167 104 72 78 72 84 3 346
-11 44 -22 89 -23 100 -2 23 -59 55 -65 36 -2 -6 -8 -8 -14 -5 -5 3 -12 -3
-15 -15 -3 -12 -10 -21 -15 -21 -6 0 -23 -14 -39 -31 -20 -22 -34 -29 -48 -24
-14 4 -23 0 -31 -15 -8 -14 -21 -20 -45 -20 -19 0 -35 -4 -35 -10 0 -5 -5 -10
-12 -10 -18 0 -98 -41 -98 -50 0 -4 -10 -10 -22 -13 -13 -2 -31 -8 -40 -12
-13 -5 -18 -3 -18 9 0 10 9 16 25 16 14 0 25 5 25 10 0 6 -7 10 -16 10 -10 0
-14 6 -11 14 4 10 1 13 -7 10 -8 -3 -17 -1 -21 5 -3 6 -1 11 4 11 19 0 12 36
-14 66 -14 16 -28 37 -31 47 -3 9 -14 17 -25 17 -24 0 -25 17 -1 23 16 4 16 5
0 6 -26 2 -22 21 5 21 16 0 11 6 -23 23 -43 22 -73 43 -110 78 -10 9 -24 19
-31 22 -10 4 -8 6 5 6 14 1 17 6 12 26 -5 20 -3 25 14 25 11 0 20 5 20 10 0 6
-5 10 -11 10 -5 0 -7 5 -4 10 3 6 2 10 -4 10 -5 0 -12 9 -16 19 -3 11 -27 30
-53 42 -60 28 -59 27 -36 43 17 13 16 14 -11 10 -17 -2 -24 -1 -17 2 18 9 14
24 -7 24 -10 0 -24 6 -30 14 -6 7 -26 16 -44 19 -17 4 -49 11 -69 16 -28 6
-38 6 -38 -3z m930 -676 c0 -5 -8 -10 -17 -10 -15 0 -16 2 -3 10 19 12 20 12
20 0z m-43 -6 c-3 -3 -12 -4 -19 -1 -8 3 -5 6 6 6 11 1 17 -2 13 -5z m71 -48
c49 -25 76 -118 53 -179 -23 -61 -121 -106 -199 -92 -62 11 -120 51 -131 89
-21 80 23 161 105 192 46 17 129 12 172 -10z"/>
<path d="M1603 2164 c-7 -3 -21 -20 -32 -37 -27 -45 -13 -115 28 -140 35 -20
92 -8 116 26 29 41 10 135 -30 151 -19 7 -64 7 -82 0z m77 -39 c0 -8 -4 -15
-10 -15 -5 0 -10 7 -10 15 0 8 5 15 10 15 6 0 10 -7 10 -15z m-71 -107 c15 -9
28 -9 56 -1 31 10 35 9 24 -3 -15 -18 -70 -18 -95 1 -23 17 -12 20 15 3z"/>
<path d="M700 2821 c0 -6 5 -13 10 -16 6 -3 10 1 10 9 0 9 -4 16 -10 16 -5 0
-10 -4 -10 -9z"/>
<path d="M668 2765 c-10 -13 -18 -31 -18 -39 0 -19 -16 -21 -23 -3 -10 24 -7
-21 3 -47 12 -33 -5 -89 -20 -66 -8 12 -10 10 -10 -7 0 -28 -17 -38 -35 -23
-11 9 -15 9 -15 1 0 -6 5 -11 10 -11 6 0 10 -4 10 -10 0 -5 -7 -7 -15 -4 -11
4 -15 -1 -15 -17 0 -13 -5 -31 -10 -39 -8 -11 -9 -7 -4 15 7 27 6 29 -9 17 -9
-7 -19 -27 -23 -45 -5 -26 -8 -28 -18 -15 -6 8 -22 18 -36 22 -17 5 -21 4 -11
-2 16 -12 5 -36 -14 -28 -8 3 -11 -2 -8 -15 3 -10 1 -19 -4 -19 -11 0 -46 -70
-39 -77 2 -2 7 5 11 17 8 25 38 23 43 -4 3 -14 0 -17 -17 -11 -19 6 -26 -2
-22 -27 1 -11 -30 -2 -38 10 -5 8 -15 -4 -29 -30 l-22 -43 0 32 c0 43 -15 49
-30 14 -6 -16 -18 -32 -26 -35 -22 -9 -16 -52 16 -117 37 -76 58 -102 112
-143 76 -56 124 -73 273 -94 50 -8 115 4 115 20 0 4 5 8 11 8 19 0 78 51 100
88 18 29 22 51 21 101 -1 36 -7 68 -13 72 -6 4 -8 12 -5 18 4 6 1 11 -6 11 -7
0 -21 20 -31 45 -11 25 -23 45 -29 45 -5 0 -6 5 -2 11 3 6 -3 24 -15 40 -11
15 -21 35 -21 43 0 8 -5 18 -10 21 -6 4 -8 15 -5 26 4 10 2 19 -3 19 -6 0 -13
18 -17 40 -4 24 -12 40 -20 40 -10 0 -14 18 -13 74 0 40 -2 78 -6 84 -3 6 -1
12 4 14 7 2 8 12 3 25 l-8 21 -17 -23z m9 -107 c-3 -8 -6 -5 -6 6 -1 11 2 17
5 13 3 -3 4 -12 1 -19z m-230 -230 c-3 -8 -6 -5 -6 6 -1 11 2 17 5 13 3 -3 4
-12 1 -19z"/>
<path d="M2432 2778 c-7 -7 -12 -20 -12 -30 0 -24 -17 -23 -30 2 -17 32 -30
14 -30 -40 0 -55 16 -100 36 -100 8 0 17 -15 22 -32 6 -24 15 -34 31 -36 19
-3 22 0 16 17 -9 28 3 27 14 -1 8 -22 9 -21 27 12 13 26 19 31 22 18 2 -10 12
-18 23 -18 19 0 27 16 10 22 -5 2 -3 17 4 33 l14 30 -6 -32 c-3 -21 -1 -33 5
-33 6 0 16 15 21 33 6 20 10 25 10 12 1 -16 3 -17 10 -6 6 9 6 22 0 34 -6 10
-9 37 -7 59 3 42 -16 66 -25 31 -3 -15 -6 -14 -14 7 -9 21 -12 22 -18 8 -4 -9
-4 -22 0 -28 3 -5 1 -10 -4 -10 -6 0 -11 8 -11 18 0 11 -3 13 -8 5 -4 -6 -16
-11 -27 -10 -15 2 -19 -3 -18 -18 2 -11 -6 -1 -17 23 -21 47 -21 47 -38 30z
m-55 -60 c-3 -8 -6 -5 -6 6 -1 11 2 17 5 13 3 -3 4 -12 1 -19z"/>
<path d="M2645 2660 c-3 -5 -1 -10 4 -10 6 0 11 5 11 10 0 6 -2 10 -4 10 -3 0
-8 -4 -11 -10z"/>
<path d="M561 2634 c0 -11 3 -14 6 -6 3 7 2 16 -1 19 -3 4 -6 -2 -5 -13z"/>
<path d="M1923 2565 c-10 -7 -15 -16 -12 -19 8 -8 79 5 74 14 -9 15 -44 18
-62 5z"/>
<path d="M2008 2553 c6 -2 18 -2 25 0 6 3 1 5 -13 5 -14 0 -19 -2 -12 -5z"/>
<path d="M2092 2527 c18 -18 48 -28 48 -17 0 10 -33 30 -50 30 -8 0 -7 -4 2
-13z"/>
<path d="M2150 2490 c0 -5 4 -10 9 -10 5 0 18 -3 28 -6 16 -6 16 -5 -2 9 -23
19 -35 21 -35 7z"/>
<path d="M1290 2450 c0 -5 5 -10 10 -10 6 0 10 5 10 10 0 6 -4 10 -10 10 -5 0
-10 -4 -10 -10z"/>
<path d="M1597 2419 c-9 -5 -21 -8 -25 -5 -4 2 -14 1 -22 -5 -11 -6 0 -9 32
-9 38 0 46 3 42 15 -4 8 -7 15 -8 15 0 0 -9 -5 -19 -11z"/>
<path d="M1535 2380 c-3 -5 1 -10 10 -10 9 0 13 5 10 10 -3 6 -8 10 -10 10 -2
0 -7 -4 -10 -10z"/>
<path d="M2152 2357 c24 -18 53 -52 65 -77 12 -25 22 -39 23 -31 0 31 -41 97
-75 119 -53 34 -62 26 -13 -11z"/>
<path d="M2008 2266 c-10 -7 -15 -16 -12 -19 3 -3 -4 -10 -15 -17 -15 -7 -21
-20 -21 -43 0 -69 54 -118 108 -99 26 10 26 10 -11 11 -24 1 -36 5 -32 12 4 6
13 8 20 5 14 -5 55 28 55 45 0 6 7 9 15 5 12 -4 15 2 15 28 0 61 -77 106 -122
72z m76 -31 c-6 -16 -24 -21 -24 -7 0 11 11 22 21 22 5 0 6 -7 3 -15z m-74
-115 c0 -5 -2 -10 -4 -10 -3 0 -8 5 -11 10 -3 6 -1 10 4 10 6 0 11 -4 11 -10z"/>
<path d="M2216 2085 c-9 -26 -7 -32 5 -12 6 10 9 21 6 23 -2 3 -7 -2 -11 -11z"/>
<path d="M2185 1939 c-133 -18 -279 -72 -338 -128 -83 -76 -74 -192 21 -287
43 -42 151 -96 237 -119 90 -24 270 -22 367 4 198 52 293 186 249 349 -8 28
-29 60 -59 92 -86 88 -246 118 -477 89z"/>
<path d="M1460 1825 c0 -8 4 -15 9 -15 5 0 11 7 15 15 3 9 0 15 -9 15 -8 0
-15 -7 -15 -15z"/>
<path d="M2317 566 c-3 -8 2 -16 14 -19 15 -4 19 -1 17 10 -4 22 -24 27 -31 9z"/>
<path d="M2193 520 c-13 -5 -33 -11 -45 -13 -13 -2 -31 -7 -40 -10 -10 -4 -25
-9 -34 -12 -8 -3 -12 -10 -9 -15 4 -6 1 -9 -7 -8 -7 2 -16 10 -20 18 -5 12 -8
10 -14 -8 -5 -16 -12 -21 -25 -17 -13 4 -19 1 -19 -9 0 -9 -5 -15 -11 -13 -6
1 -13 -3 -16 -10 -2 -6 6 -14 19 -16 13 -3 -2 -2 -33 0 l-56 5 -6 -31 c-4 -19
-13 -31 -22 -31 -13 0 -14 4 -5 21 7 11 9 23 6 26 -9 10 -34 -5 -39 -24 -2
-10 -3 -5 -1 11 4 29 4 29 -16 11 -16 -14 -20 -32 -22 -84 l-2 -66 -3 64 c-4
56 -6 61 -17 45 -13 -17 -22 -17 -149 -7 -75 6 -142 15 -149 19 -7 4 -37 9
-68 10 -30 1 -91 14 -134 29 -84 27 -112 23 -90 -13 6 -9 9 -31 7 -47 -3 -25
1 -34 26 -50 17 -11 31 -25 31 -31 0 -26 225 -88 404 -110 34 -4 45 -8 35 -15
-9 -5 0 -6 23 -2 23 3 43 1 52 -6 20 -17 36 14 37 71 1 24 3 32 6 18 13 -85
15 -91 36 -99 12 -5 26 -5 32 0 5 5 18 9 30 10 20 0 20 0 0 8 l-20 8 20 6 c11
3 52 11 90 17 39 6 85 16 103 22 24 7 37 7 48 -2 19 -17 51 11 63 54 5 17 10
23 10 14 1 -11 9 -18 20 -18 21 0 73 39 53 40 -7 0 -10 4 -7 10 4 6 13 5 25
-2 23 -15 70 6 70 31 0 11 -5 9 -20 -7 -35 -38 -61 -24 -30 16 17 21 20 39 18
99 l-2 75 -33 -4 c-18 -2 -33 0 -33 4 0 4 -7 8 -16 8 -14 0 -14 -3 -4 -15 10
-12 10 -19 2 -27 -8 -8 -14 -5 -20 13 -5 13 -7 30 -5 37 6 14 6 14 -24 2z
m-906 -146 c-3 -3 -12 -4 -19 -1 -8 3 -5 6 6 6 11 1 17 -2 13 -5z m-10 -110
c-3 -3 -12 -4 -19 -1 -8 3 -5 6 6 6 11 1 17 -2 13 -5z m47 -13 c4 -5 -3 -7
-14 -4 -23 6 -26 13 -6 13 8 0 17 -4 20 -9z"/>
<path d="M1726 117 c3 -10 9 -15 12 -12 3 3 0 11 -7 18 -10 9 -11 8 -5 -6z"/>
<path d="M1766 105 c-2 -5 1 -18 6 -27 6 -12 5 -18 -3 -18 -6 0 -9 -6 -6 -14
4 -10 0 -14 -14 -13 -23 2 -23 2 -4 20 13 13 13 16 -1 27 -12 11 -13 10 -9 -3
4 -8 2 -18 -4 -22 -6 -3 -11 -17 -11 -31 0 -21 5 -24 34 -24 34 0 53 20 39 42
-3 7 -1 8 6 4 6 -4 9 -16 6 -27 -5 -16 -1 -19 23 -19 20 0 31 6 35 17 2 10 8
27 12 38 6 17 4 16 -13 -4 l-20 -24 -6 21 c-4 12 -4 27 0 33 4 8 3 9 -5 5 -8
-5 -10 -20 -7 -39 6 -30 5 -31 -5 -7 -6 14 -11 37 -11 52 -1 19 -6 26 -19 25
-10 -1 -20 -6 -23 -12z"/>
<path d="M1898 73 c7 -3 16 -2 19 1 4 3 -2 6 -13 5 -11 0 -14 -3 -6 -6z"/>
</g>
</svg>
